<svg width="48" height="48" viewBox="0 0 48 48" fill="none" xmlns="http://www.w3.org/2000/svg">
<g clip-path="url(#clip0)">
<path d="M22.8517 0C22.6987 0 22.5201 0.0125702 22.3415 0.0251404C22.163 0.0377106 21.9844 0.0502808 21.8313 0.0502808C20.9133 5.11107 21.9846 10.3723 25.045 14.7313C25.1514 14.6059 25.2401 14.4891 25.3222 14.3811C25.4368 14.2304 25.5384 14.0966 25.6573 13.98C22.8517 9.82103 21.9332 4.71012 22.8517 0Z" fill="#00AE9D"/>
<path d="M24.5359 15.383C21.2202 10.8735 20.0979 5.41207 20.9141 0.150809C20.8085 0.168056 20.7029 0.179349 20.5951 0.190868C20.3908 0.212713 20.1789 0.235372 19.9452 0.301C19.078 5.76273 20.455 11.5751 23.9237 16.2348C24.0159 16.1216 24.0978 15.9981 24.1833 15.8689C24.2869 15.7125 24.3961 15.5477 24.5359 15.383Z" fill="#00AE9D"/>
<path d="M18.4143 0.590011C18.6181 0.545569 18.8218 0.501137 19.0254 0.501137C18.2606 6.2133 19.6887 12.2262 23.4635 17.0362C23.387 17.1866 23.3105 17.362 23.2339 17.5374C23.1574 17.7128 23.0809 17.8882 23.0044 18.0386C18.9234 12.9774 17.3422 6.76443 18.1074 0.651328C18.2097 0.634633 18.312 0.612321 18.4143 0.590011Z" fill="#00AE9D"/>
<path d="M16.9465 1.00979C17.0238 0.991873 17.1045 0.973137 17.1897 0.952209C16.4758 7.2653 18.3119 13.8295 22.6987 18.9407C22.631 19.0961 22.5732 19.2613 22.5166 19.4232C22.4454 19.6269 22.376 19.8254 22.2909 19.9927C17.6488 14.6315 15.5574 7.86688 16.1696 1.25292C16.4118 1.13384 16.6539 1.07768 16.9465 1.00979Z" fill="#00AE9D"/>
<path d="M22.0874 21.0449C17.0376 15.5332 14.6912 8.468 15.2522 1.55317C15.0994 1.62831 14.9212 1.70336 14.7429 1.77842C14.5642 1.85366 14.3852 1.92907 14.2321 2.0044C13.8748 9.21945 16.4254 16.5852 21.9342 22.2474C21.9342 22.0972 21.9342 21.9467 21.9854 21.7965C21.9854 21.6641 22.0138 21.5179 22.0407 21.3799C22.0647 21.2564 22.0874 21.1395 22.0874 21.0449Z" fill="#00AE9D"/>
<path d="M21.6283 23.1996C21.6792 23.1996 21.7812 23.2996 21.8321 23.3498V24.6023C21.5263 24.3019 21.2202 24.0012 21.0161 23.7005C15.0989 18.0886 12.2426 10.4221 12.3955 2.90637C12.5488 2.83097 12.7022 2.74311 12.8555 2.65528C13.0082 2.56778 13.1609 2.4803 13.3135 2.40519C13.0077 9.92128 15.8132 17.4875 21.6283 23.1996Z" fill="#00AE9D"/>
<path d="M20.3014 24.3019C14.3842 18.6397 11.4766 11.0237 11.4766 3.45747C11.3233 3.53271 11.1699 3.62056 11.0166 3.70839C10.8639 3.79589 10.7112 3.88337 10.5586 3.95832C10.7115 11.6248 13.7211 19.2408 19.6891 25.0032C20.5563 25.8048 21.3725 26.5565 22.2909 27.3081C22.192 26.9849 22.1358 26.6825 22.0809 26.3875C22.0507 26.2252 22.021 26.0651 21.9847 25.905C21.7328 25.633 21.4561 25.3854 21.173 25.1321C20.8826 24.8722 20.5855 24.6063 20.3014 24.3019Z" fill="#00AE9D"/>
<path d="M19.027 25.6045C13.1098 19.8424 9.94733 12.3266 9.74325 4.66018C9.59072 4.76017 9.43812 4.87259 9.28547 4.98504C9.13207 5.09804 8.97863 5.21107 8.8252 5.31156C9.18218 12.9777 12.3959 20.4938 18.4151 26.2559C19.9455 27.7591 21.6287 29.1119 23.363 30.2645L23.3204 30.1707C23.1243 29.738 22.89 29.2214 22.6999 28.661C21.4755 27.7591 20.2513 26.7068 19.027 25.6045Z" fill="#00AE9D"/>
<path d="M24.8917 32.7299C24.994 32.8582 25.0963 32.9866 25.1985 33.1205C25.3601 33.2476 25.4808 33.3947 25.5865 33.5236C25.6476 33.5981 25.7038 33.6666 25.7599 33.7216V33.7719C22.5971 32.2187 19.6895 30.1139 17.0881 27.5585C15.966 26.4063 14.9457 25.3039 14.0277 24.1014V23.6505C14.0277 22.2973 13.0074 21.195 11.732 20.7944C9.13061 16.4349 7.60013 11.725 7.03906 6.81435C7.19167 6.66461 7.34428 6.53969 7.49685 6.41481C7.65033 6.28919 7.80376 6.16359 7.95712 6.01279C8.51818 13.6791 11.7831 21.0948 17.8019 26.8572C19.7914 28.8115 21.9848 30.5653 24.2801 31.918C24.484 32.2182 24.6879 32.4741 24.8917 32.7299Z" fill="#00AE9D"/>
<path d="M10.6612 20.7442C8.26352 16.6856 6.83525 12.1759 6.27402 7.66646C6.12157 7.81636 5.99441 7.96627 5.86727 8.11614C5.73945 8.26683 5.61146 8.41769 5.45801 8.56826C6.07026 12.9277 7.49836 17.0363 9.64076 20.9447C9.94672 20.7945 10.253 20.7442 10.6612 20.7442Z" fill="#00AE9D"/>
<path d="M8.87484 21.3955C6.83415 17.6376 5.35502 13.6791 4.69191 9.52026C4.43697 9.92121 4.23289 10.2216 3.92676 10.5726C4.69191 14.6312 6.12034 18.5392 8.26274 22.1471C8.36487 21.9465 8.51235 21.7904 8.65981 21.6344C8.73337 21.5566 8.80692 21.4788 8.87484 21.3955Z" fill="#00AE9D"/>
<path d="M7.80344 23.6506C7.80344 25.1536 8.87488 26.3561 10.252 26.6568C11.3232 28.0598 12.5471 29.4127 13.8733 30.7154C20.8617 37.5299 29.7885 41.2879 38.9702 41.8893C38.7918 42.0393 38.6008 42.1769 38.4098 42.3145C38.2183 42.4525 38.0268 42.5904 37.848 42.7408C28.8701 41.8893 20.0966 38.081 13.1594 31.3165C7.80327 26.0553 4.28379 19.6921 2.60059 12.9276C2.73229 12.5392 2.9397 12.1879 3.1251 11.8738C3.15492 11.8233 3.18423 11.7737 3.21251 11.7251C4.13056 15.6834 5.66104 19.592 7.80344 23.1997V23.6506Z" fill="#00AE9D"/>
<path d="M1.98888 14.1801C1.92079 14.3307 1.8584 14.4812 1.79602 14.6317C1.67142 14.9322 1.54684 15.2327 1.37695 15.5333C3.36612 21.8466 6.83474 27.609 11.885 32.5696C18.567 39.1333 26.8306 42.9414 35.4004 44.2443C35.5894 44.1412 35.7612 44.0295 35.9298 43.9199C36.1707 43.7632 36.4055 43.6106 36.6754 43.4927C27.9019 42.4407 19.3322 38.5821 12.5478 31.9682C7.34496 26.807 3.82531 20.7441 1.98888 14.1801Z" fill="#00AE9D"/>
<path d="M0.560547 18.5394C0.611734 18.0386 0.764632 17.4875 0.917531 16.9863C3.00907 22.9991 6.42684 28.4605 11.2725 33.2709C17.7001 39.4842 25.6574 43.3923 34.0228 44.8957C33.4617 45.1461 32.9516 45.3466 32.4926 45.4968C24.4332 43.8432 16.8836 39.9351 10.6606 33.8723C6.06986 29.3627 2.70295 24.1014 0.560547 18.5394Z" fill="#00AE9D"/>
<path d="M0.255769 20.2932C0.153726 20.8947 0.102539 21.4959 0.102539 22.0972C2.24494 26.807 5.35658 31.2162 9.33541 35.1248C15.0485 40.6867 21.7816 44.4446 28.974 46.4991C29.5862 46.3989 30.1983 46.2484 30.8106 46.0479C23.2101 44.2443 15.9667 40.3358 9.9475 34.4734C5.66271 30.2645 2.44902 25.354 0.255769 20.2932Z" fill="#00AE9D"/>
<path d="M0.0951648 25.5366C0.0483384 25.0356 0 24.5185 0 24.0012C2.24444 28.2101 5.04995 32.2187 8.67197 35.7262C14.0281 40.9871 20.3022 44.695 26.9842 46.8498C26.2193 46.95 25.454 47 24.6889 47C18.6188 44.7453 12.9566 41.2379 8.05955 36.4275C4.89705 33.3212 2.24444 29.8635 0.15323 26.2059C0.137273 25.9871 0.116374 25.7635 0.0951648 25.5366Z" fill="#00AE9D"/>
<path d="M0.612305 28.661C0.867246 29.6631 1.17337 30.6153 1.4795 31.5171C3.06067 33.7218 4.74404 35.7264 6.73321 37.6802C10.508 41.2879 14.6399 44.2442 19.0777 46.4992C20.0978 46.6993 21.1691 46.8498 22.1382 46.9501C16.7821 44.5948 11.7835 41.2879 7.44751 37.0288C4.74421 34.4733 2.55062 31.6174 0.612305 28.661Z" fill="#00AE9D"/>
<path d="M3.16309 35.1248C5.91741 39.7846 10.1003 43.3923 15.2011 45.3464C11.9366 43.3921 8.87615 41.0874 6.1215 38.2816C5.05021 37.3295 4.13199 36.2773 3.16309 35.1248Z" fill="#00AE9D"/>
<path d="M11.4268 26.6567C11.7329 26.6567 12.0899 26.5066 12.3451 26.356C13.2632 27.4082 14.1815 28.4606 15.2015 29.4126C22.292 36.4277 31.5757 40.0353 40.9611 40.1855C40.6042 40.4862 40.298 40.7869 39.9922 41.0873C30.7085 40.6867 21.6289 37.0287 14.4875 30.1139C14.3174 29.9309 14.1472 29.7491 13.9777 29.568C13.0799 28.609 12.1992 27.6684 11.4268 26.6567Z" fill="#00AE9D"/>
<path d="M37.2871 39.0332C38.7664 39.1834 40.2964 39.2836 41.8267 39.2836C42.0308 39.0332 42.2857 38.7325 42.4898 38.5319C41.1127 38.8825 39.5822 39.0332 38.0518 39.0332H37.2871Z" fill="#00AE9D"/>
<path d="M16.4397 28.1234L16.4753 28.1602C19.8419 31.4672 23.7695 34.0224 27.9523 35.7262C29.4828 36.8786 31.166 37.6802 33.1043 38.2816C26.7281 36.7784 20.7601 33.6216 15.8122 28.8116C14.7921 27.8595 13.9247 26.8575 13.1084 25.805C13.3125 25.6045 13.4657 25.3541 13.6186 25.0534C14.4752 26.0928 15.481 27.1324 16.4397 28.1234Z" fill="#00AE9D"/>
<path d="M38.2058 33.6215C35.7574 33.6215 33.4618 32.7197 31.7275 31.367C34.9922 32.5192 38.3588 33.0204 41.8273 33.0204C40.7562 33.4213 39.532 33.6215 38.2058 33.6215Z" fill="#00AE9D"/>
<path d="M29.3311 28.4605C29.3741 28.5451 29.4156 28.6282 29.4565 28.7099C29.6578 29.1124 29.8417 29.4803 30.0959 29.8136C34.4829 31.6676 39.2267 32.3689 43.8175 32.0681C44.194 31.8461 44.5427 31.5698 44.8841 31.2993C45.0053 31.2033 45.1256 31.1079 45.2459 31.0161C39.89 31.6676 34.3298 30.8657 29.3311 28.4605Z" fill="#00AE9D"/>
<path d="M28.824 26.6324C28.7925 26.4652 28.7593 26.2894 28.7178 26.1057C34.3288 29.2122 40.9091 30.114 47.0303 28.8115C46.9118 29.1215 46.7325 29.3715 46.5629 29.6081C46.5132 29.6774 46.4643 29.7456 46.418 29.8137C46.316 29.8637 46.316 29.8637 46.2651 29.9639C40.45 30.916 34.3288 30.0142 28.9727 27.3083C28.9123 27.1006 28.8698 26.8752 28.824 26.6324Z" fill="#00AE9D"/>
<path d="M29.7662 24.6296C29.3678 24.417 28.9593 24.1991 28.5664 23.9508V25.0531C34.3815 28.3604 41.1147 29.3625 47.4908 27.8592C47.5927 27.6589 47.6494 27.4585 47.7061 27.2583C47.7345 27.158 47.7629 27.0577 47.797 26.9574V26.8572C42.7979 28.1599 37.4418 27.8592 32.647 25.9554H30.7086V25.1535C30.4105 24.9734 30.0917 24.8032 29.7662 24.6296Z" fill="#00AE9D"/>
<path d="M30.1079 23.843C29.6048 23.5883 29.0727 23.3189 28.5664 22.9992C28.5664 22.6985 28.5664 22.2974 28.6684 21.9468C29.3317 22.3978 30.0457 22.8486 30.7088 23.1996V24.1516C30.516 24.0496 30.3142 23.9474 30.1079 23.843Z" fill="#00AE9D"/>
<path d="M35.4521 25.9555C39.533 27.0075 43.8687 27.0075 47.9495 25.9052C47.9495 25.6045 47.9495 25.3041 48.0004 24.9032C47.9325 24.9701 47.819 24.9923 47.7055 25.0146C47.6489 25.0257 47.5923 25.0368 47.5414 25.0534C47.5414 25.2037 47.5287 25.3541 47.516 25.5044C47.5032 25.6548 47.4905 25.8051 47.4905 25.9555H35.4521Z" fill="#00AE9D"/>
<path d="M47.9996 23.1494V24.0012C47.9333 24.0666 47.8017 24.0893 47.6757 24.1111C47.6085 24.1227 47.5429 24.134 47.4897 24.1514C47.4897 23.9859 47.4588 23.8204 47.431 23.6717C47.4083 23.5503 47.3877 23.4399 47.3877 23.3499C47.5314 23.3215 47.6427 23.2774 47.749 23.2353C47.8314 23.2027 47.9107 23.1713 47.9996 23.1494Z" fill="#00AE9D"/>
<path d="M28.8203 20.9447C29.4322 21.3956 30.0954 21.8465 30.7078 22.2476V21.2455H30.9627C30.2487 20.8949 29.6365 20.4938 29.0244 20.0429C28.9989 20.1924 28.9608 20.3421 28.9227 20.4918C28.8843 20.6425 28.8458 20.7939 28.8203 20.9447Z" fill="#00AE9D"/>
<path d="M47.9737 21.7964C47.9864 21.9468 47.9991 22.0972 47.9991 22.2476C47.9223 22.2663 47.831 22.2923 47.7333 22.32C47.5719 22.3659 47.3931 22.4167 47.2343 22.448C47.2343 22.1473 47.1831 21.8466 47.0811 21.5459C47.2341 21.5209 47.3744 21.4834 47.5147 21.4458C47.6549 21.4083 47.7952 21.3707 47.9483 21.3458C47.9483 21.4959 47.961 21.6462 47.9737 21.7964Z" fill="#00AE9D"/>
<path d="M29.7901 18.339C31.4735 19.5918 33.3096 20.594 35.2479 21.2454H32.7993C31.5755 20.6439 30.402 19.9924 29.3311 19.1409C29.484 18.8402 29.6369 18.5395 29.7901 18.339Z" fill="#00AE9D"/>
<path d="M24.6893 0H23.7712C22.7512 4.50949 23.6692 9.31985 26.3727 13.3786C26.5767 13.1282 26.8317 12.9277 27.0358 12.7775C24.5364 8.91923 23.7712 4.25906 24.6893 0Z" fill="#00AE9D"/>
<path d="M47.7454 19.9427C47.7709 20.118 47.7964 20.2933 47.7964 20.4434C47.5411 20.4937 47.2353 20.594 46.9292 20.7442C46.878 20.4434 46.7759 20.1431 46.623 19.8424C46.7431 19.7982 46.8544 19.7583 46.9607 19.7202C47.2155 19.6289 47.4422 19.5476 47.6943 19.4414C47.6943 19.5918 47.7199 19.7673 47.7454 19.9427Z" fill="#00AE9D"/>
<path d="M40.4498 21.2452V20.4936C37.0833 20.2931 33.7675 19.0905 30.962 16.9862C30.9109 17.0112 30.8726 17.0488 30.8344 17.0865C30.7962 17.124 30.758 17.1615 30.7071 17.1866L30.7013 17.1923C30.55 17.3406 30.399 17.4886 30.248 17.5872C32.8495 19.5918 35.757 20.7943 38.8173 21.2452H40.4498Z" fill="#00AE9D"/>
<path d="M25.6062 0C25.9124 0.0502808 26.2185 0.0502808 26.5243 0.0502808C25.6062 4.05859 26.2693 8.26786 28.565 11.7753C28.36 11.8759 28.2007 11.9765 28.0413 12.0771C27.9627 12.1268 27.884 12.1765 27.7998 12.2262C25.3513 8.56824 24.6882 4.10887 25.6062 0Z" fill="#00AE9D"/>
<path d="M47.399 18.038C47.3764 17.9381 47.3536 17.8378 47.3366 17.7379C47.2777 17.7571 47.2196 17.7764 47.1622 17.7955C46.7721 17.925 46.4108 18.045 46.0107 18.0885C46.0872 18.2389 46.1509 18.3891 46.2147 18.5394C46.2783 18.6896 46.3422 18.8401 46.4186 18.9903C46.6141 18.908 46.7944 18.8557 46.9846 18.8006C47.1416 18.7551 47.3053 18.7076 47.4899 18.6397C47.4899 18.439 47.4444 18.2385 47.399 18.038Z" fill="#00AE9D"/>
<path d="M32.7994 15.9841C34.9421 17.4873 37.2886 18.3892 39.8388 18.6397C39.9921 18.9404 40.1451 19.2912 40.1962 19.5918C37.2374 19.3913 34.3299 18.339 31.7793 16.435L31.7852 16.4321C32.0894 16.2828 32.3942 16.1333 32.7994 15.9841Z" fill="#00AE9D"/>
<path d="M47.0309 16.8361C46.9741 16.6965 46.9331 16.5414 46.8902 16.3795C46.8561 16.2507 46.8208 16.1175 46.7755 15.9842C46.5209 16.0592 46.2535 16.1593 45.986 16.2595C45.718 16.3598 45.4496 16.4602 45.1943 16.5354C45.3476 16.7359 45.5005 17.0362 45.6534 17.3369C46.1124 17.1868 46.5717 17.0362 47.0309 16.8361Z" fill="#00AE9D"/>
<path d="M37.1217 16.2343C37.2638 16.2846 37.406 16.3349 37.5424 16.3852C38.1545 16.6856 38.6647 17.1365 39.1238 17.6378C37.3895 17.3369 35.5531 16.7358 33.9209 15.7838C34.6857 15.6835 35.5529 15.6835 36.3182 15.934C36.5558 16.0341 36.8389 16.1343 37.1217 16.2343Z" fill="#00AE9D"/>
<path d="M28.3611 0.351423C28.2592 0.334691 28.1574 0.312427 28.0555 0.290166C27.8513 0.245531 27.6471 0.200906 27.4431 0.200906C26.5247 3.95879 27.1369 8.01754 29.4321 11.4248C29.6361 11.2746 29.9424 11.1244 30.2486 11.0241C28.1062 7.86734 27.4431 3.95879 28.3611 0.351423Z" fill="#00AE9D"/>
<path d="M46.2919 14.7315C46.3429 14.8818 46.3939 15.0322 46.4705 15.1825C45.8581 15.3827 45.3482 15.5332 44.7359 15.6834C44.5409 15.53 44.4056 15.3182 44.2615 15.0926C44.2172 15.0233 44.172 14.9524 44.124 14.8818C44.7873 14.7816 45.5013 14.5811 46.1132 14.2804C46.1898 14.4307 46.2408 14.5811 46.2919 14.7315Z" fill="#00AE9D"/>
<path d="M30.0963 0.751565C29.9433 0.701406 29.7902 0.663838 29.637 0.62626C29.4841 0.588742 29.3312 0.551215 29.1783 0.501137C28.3623 3.95831 28.9742 7.71668 31.1678 10.8232C31.3477 10.7349 31.5628 10.6985 31.7717 10.6632C31.9183 10.6384 32.0618 10.6141 32.188 10.5728C29.9434 7.71668 29.2803 4.05854 30.0963 0.751565Z" fill="#00AE9D"/>
<path d="M31.8808 1.2528C31.1154 4.40975 31.9319 7.86692 34.4823 10.3723C34.2382 10.3723 34.0086 10.3864 33.7934 10.3996C33.6039 10.4112 33.4255 10.4221 33.2583 10.4221C30.9627 7.71656 30.1976 4.20911 30.9627 0.952087C31.0648 0.985525 31.167 1.02452 31.2691 1.06352C31.473 1.14141 31.677 1.21929 31.8808 1.2528Z" fill="#00AE9D"/>
<path d="M43.5114 14.1302C44.2767 14.03 45.0419 13.8295 45.705 13.5288C45.6538 13.2284 45.5009 12.9277 45.348 12.6773C44.4808 12.9777 43.5626 13.2284 42.6445 13.2784C42.7488 13.3809 42.8532 13.4777 42.9555 13.5725C43.1532 13.7558 43.3434 13.9321 43.5114 14.1302Z" fill="#00AE9D"/>
<path d="M33.6156 1.9543C33.1054 4.50951 33.7687 7.26535 35.8601 9.21963C36.6252 9.97124 37.5433 10.5728 38.5127 10.9734C37.5941 10.723 36.6761 10.5225 35.758 10.4223C35.6759 10.3619 35.6021 10.2933 35.5266 10.2232C35.4144 10.119 35.2984 10.0112 35.1458 9.92144C32.8505 7.66646 32.0345 4.40976 32.6976 1.55335C33.0014 1.65294 33.3055 1.80217 33.6097 1.95139L33.6156 1.9543Z" fill="#00AE9D"/>
<path d="M44.8877 11.9255L44.8848 11.9198C44.7326 11.621 44.5806 11.3228 44.4284 11.1239C42.745 11.725 40.9597 11.725 39.2764 11.2741C40.1436 11.5748 40.9087 12.0259 41.674 12.5267C42.745 12.5266 43.8673 12.3264 44.8877 11.9255Z" fill="#00AE9D"/>
<path d="M43.4782 9.6999C43.6289 9.92593 43.7671 10.1332 43.9698 10.3723C41.3683 11.1738 38.4608 10.5728 36.4716 8.61864C34.6862 6.91478 34.0231 4.5096 34.3804 2.30506C34.6842 2.40465 34.9884 2.55387 35.2925 2.7031L35.2985 2.706C35.0944 4.56005 35.7066 6.51417 37.1346 7.96726C38.8178 9.62067 41.2154 10.1219 43.3578 9.52044C43.3997 9.58208 43.4394 9.64161 43.4782 9.6999Z" fill="#00AE9D"/>
<path d="M42.7459 8.76872C42.562 8.62415 42.4046 8.4276 42.2355 8.21644C42.1701 8.13481 42.103 8.051 42.0319 7.96716C40.7567 8.11735 39.4305 7.66645 38.4613 6.66425C37.5941 5.86269 37.1349 4.81021 37.0842 3.75822C36.9312 3.683 36.7782 3.58283 36.6253 3.48269C36.4722 3.38244 36.3191 3.28222 36.1661 3.20708C36.0641 4.66018 36.6251 6.21335 37.7473 7.36574C39.1244 8.71877 40.9605 9.16967 42.7459 8.76872Z" fill="#00AE9D"/>
<path d="M38.0527 4.4098C39.2262 5.26132 40.2972 6.16312 41.2664 7.11536C40.4504 7.06524 39.6851 6.6643 39.0733 6.06337C38.5121 5.61198 38.206 5.01089 38.0527 4.4098Z" fill="#00AE9D"/>
</g>
<defs>
<clipPath id="clip0">
<path d="M0 0H48V48H0V0Z" fill="white"/>
</clipPath>
</defs>
</svg>
